<svg xmlns="http://www.w3.org/2000/svg" width="58.008" height="58.008" viewBox="0 0 15.348 15.348"><g transform="translate(-.793 -.793)"><circle cx="8.467" cy="8.467" r="7.674" style="opacity:1;fill:#467a8b;fill-opacity:.472256;stroke:none;stroke-width:.189831;stroke-opacity:1;-inkscape-stroke:none"/><path d="m3.91 3.331 1.58-.093 5.482-.326-.494 2.402-5.48.325-.454 2.21 5.48-.324-.47 2.292-5.481.326-.39 1.896 5.481-.325-.423 2.06-5.48.326-1.581.093zM15.373 6.723l-.336 1.668c-1.397-.444-3.3-.59-3.339 1.383.043.178.194.187.314.21.745.148 1.656-.102 2.148.382.792.851.389 1.455.098 1.898-1.154 1.377-2.883 1.609-4.54 1.83l.342-1.7 1.496-.21c2.051-.593-.014-1.14-.87-1.598-.879-.614-.041-3.101 1.544-3.7 1.125-.266 2.08-.345 3.143-.163" style="opacity:1;fill:#112b58;fill-opacity:1;stroke:none;stroke-width:.189831;stroke-opacity:1;-inkscape-stroke:none"/></g></svg>